<svg xmlns="http://www.w3.org/2000/svg" viewBox="0 0 18 18">  <g clip-path="url(#a)">    <path fill="#E7E9ED" d="M0 0h18v18H0V0Z"/>    <path fill="#E20F38" d="M8.162 7.76c0-.003 0-.003 0 0H6.958c.216.235.423.503.7.503a.49.49 0 0 0 .306-.105l.378.708v-.922a.185.185 0 0 0-.18-.185Zm1.683-.003h-.007a.186.186 0 0 0-.18.187v.92l.378-.71a.5.5 0 0 0 .304.103c.277 0 .482-.266.697-.5H9.845Z"/>    <path fill="#E20F38" d="M9 3.5A5.506 5.506 0 0 0 3.5 9c0 3.032 2.468 5.5 5.5 5.5s5.5-2.468 5.5-5.5S12.032 3.5 9 3.5Zm5.047 4.829a5.552 5.552 0 0 0-2.018-1.646.965.965 0 0 0-.073-.552c.617.17 1.198.453 1.715.84.184.427.312.883.376 1.358Zm-.779-2.103a5.463 5.463 0 0 0-2.077-.654v.003a.963.963 0 0 0-.858.35l-.391-.328a5.103 5.103 0 0 1 2.222-.581c.43.34.803.75 1.104 1.21Zm-1.632.303a.545.545 0 0 1-.141.368l-.847-.71a.555.555 0 0 1 .988.343Zm0-1.883a5.513 5.513 0 0 0-2.029.667l-.29-.244 1.133-.95c.42.125.818.303 1.186.527ZM9 3.91c.328 0 .647.031.96.09L9 4.802 8.04 4A5.1 5.1 0 0 1 9 3.91Zm-1.452.21 1.133.95-.29.244a5.473 5.473 0 0 0-2.029-.667 5.04 5.04 0 0 1 1.186-.528Zm-1.714.897a5.08 5.08 0 0 1 2.222.58l-.4.335a.958.958 0 0 0-.902-.352 5.47 5.47 0 0 0-2.022.647 5.1 5.1 0 0 1 1.102-1.21Zm1.017.961c.017-.002.035-.002.055-.002a.55.55 0 0 1 .44.218l-.85.71a.553.553 0 0 1 .337-.921c.004-.003.011-.003.018-.005Zm-2.522.995a5.066 5.066 0 0 1 1.699-.839.945.945 0 0 0-.073.555A5.538 5.538 0 0 0 3.951 8.33c.064-.475.194-.93.378-1.357Zm-.42 2.162a5.127 5.127 0 0 1 2.2-2.066c.022.033.049.066.075.097l-.057.049c-.112.094-.22.191-.321.292h-.003l-.006.007c-.002.004-.007.006-.009.01a5.483 5.483 0 0 0-1.582 3.197 5.11 5.11 0 0 1-.297-1.586Zm1.648 3.615a5.116 5.116 0 0 1-.986-1.239l-.002-.083c0-1.028.308-2.013.87-2.845.015.187.065.37.149.535a5.519 5.519 0 0 0-.03 3.632Zm1.058.748a5.226 5.226 0 0 1-.402-.238 5.035 5.035 0 0 1-.542-2.283c0-.498.07-.986.212-1.457.079.075.165.143.261.198l.025.013c.193.11.35.267.46.451a5.513 5.513 0 0 0-.014 3.316Zm4.25.24a5.064 5.064 0 0 1-1.867.354 5.08 5.08 0 0 1-1.868-.354 5.075 5.075 0 0 1-.3-2.638c.069.336.278.625.56.798.026.858.275 1.61 1.542 1.61h.125c1.265 0 1.514-.75 1.542-1.607.284-.174.493-.462.564-.801.037.253.057.508.057.765a4.985 4.985 0 0 1-.354 1.873ZM7.81 12.056a.996.996 0 0 0 .163.015h.033a1.18 1.18 0 0 0 .992-.528 1.184 1.184 0 0 0 .992.528h.033c.055-.002.108-.006.16-.015-.05.693-.292 1.043-1.124 1.043h-.125c-.832.002-1.074-.35-1.124-1.043Zm2.972-1.248v.047a.804.804 0 0 1-.766.81.788.788 0 0 1-.807-.718 9.2 9.2 0 0 1 .455-.405A2.472 2.472 0 0 0 9 10.45c-.227 0-.449.033-.662.092.145.123.299.26.455.407a.773.773 0 0 1-.235.495.779.779 0 0 1-.572.222.804.804 0 0 1-.766-.81v-.045h-.002a1.66 1.66 0 0 0-.843-1.433l-.002-.002-.015-.009a1.044 1.044 0 0 1-.51-.895c0-.244.085-.482.244-.669.096-.094.198-.187.303-.277l2.612-2.191 2.602 2.191a5.422 5.422 0 0 1 .3.273 1.039 1.039 0 0 1-.265 1.566l-.015.009-.004.002-.014.007a1.666 1.666 0 0 0-.829 1.425Zm1.001 2.453c-.13.084-.262.163-.398.236a5.507 5.507 0 0 0-.018-3.318 1.268 1.268 0 0 1 .484-.462c.095-.057.183-.123.262-.198.14.471.211.96.211 1.457 0 .805-.182 1.573-.541 2.285Zm1.646-1.75a5.156 5.156 0 0 1-.99 1.242 5.55 5.55 0 0 0 .294-1.777c0-.638-.107-1.263-.323-1.86a1.46 1.46 0 0 0 .15-.536 5.07 5.07 0 0 1 .87 2.847l-.001.083Zm-1.556-4.297-.066-.055a.982.982 0 0 0 .073-.095 5.134 5.134 0 0 1 2.209 2.07 5.121 5.121 0 0 1-.297 1.586 5.5 5.5 0 0 0-1.919-3.506Z"/>  </g>  <defs>    <clipPath id="a">      <path fill="#fff" d="M0 0h18v18H0z"/>    </clipPath>  </defs></svg>