<svg xmlns="http://www.w3.org/2000/svg" viewBox="0 0 18 18">  <g clip-path="url(#a)">    <path fill="#2E008B" d="M0 0h18v18H0V0Z"/>    <path fill="#8B84D7" d="M12.853 9a3.88 3.88 0 0 1-2.316 2.456 1.48 1.48 0 0 0-.965 1.386V14a3.848 3.848 0 0 0 3.421-4.246c0-.263-.052-.508-.14-.754Z"/>    <path fill="#fff" d="M7.467 11.439A3.852 3.852 0 0 1 5.151 9c-.631 2.035.492 4.21 2.527 4.842.245.07.49.123.737.158v-1.158a1.479 1.479 0 0 0-.948-1.403Z"/>    <path fill="#009775" d="M9.59 4v1.158c0 .614.368 1.175.947 1.386A3.84 3.84 0 0 1 12.853 9c.632-2.035-.491-4.21-2.526-4.842A5.524 5.524 0 0 0 9.59 4Z"/>    <path fill="#6ECEB2" d="M8.415 4c-2.106.228-3.65 2.14-3.422 4.263.036.246.07.491.158.737a3.84 3.84 0 0 1 2.316-2.456 1.48 1.48 0 0 0 .948-1.386V4Z"/>    <path fill="#FFA400" d="M9.011 9.948a.943.943 0 0 0 .947-.947.943.943 0 0 0-.947-.948.943.943 0 0 0-.947.948c0 .526.42.947.947.947Z"/>  </g>  <defs>    <clipPath id="a">      <path fill="#fff" d="M0 0h18v18H0z"/>    </clipPath>  </defs></svg>