<svg xmlns="http://www.w3.org/2000/svg" viewBox="0 0 18 18">  <g clip-path="url(#a)">    <path fill="#031A3F" d="M0 0h18v18H0V0Z"/>    <path fill="#990830" fill-rule="evenodd" d="M13.04 8.464a4.919 4.919 0 0 0-5.588-2.283 4.92 4.92 0 0 0-3.597 4.842l.264.015a4.13 4.13 0 0 1 2.833-3.893 4.142 4.142 0 0 1 4.602 1.426 4.26 4.26 0 0 1 1.486-.108" clip-rule="evenodd"/>    <path fill="#990830" fill-rule="evenodd" d="M7.085 7.605a3.583 3.583 0 0 0-2.617 3.455l.243.007a2.962 2.962 0 0 1 1.942-2.735 2.971 2.971 0 0 1 3.254.826c.295-.134.595-.252.89-.354a3.55 3.55 0 0 0-3.712-1.199Z" clip-rule="evenodd"/>    <path fill="#fff" fill-rule="evenodd" d="M14.658 9.398c-3.192-2.583-7.379 2.538-10.896 1.707a3.088 3.088 0 0 1-.493-.153c3.569 2.253 8.616-3.413 12-.95a4.744 4.744 0 0 0-.61-.602" clip-rule="evenodd"/>  </g>  <defs>    <clipPath id="a">      <path fill="#fff" d="M0 0h18v18H0z"/>    </clipPath>  </defs></svg>