<svg xmlns="http://www.w3.org/2000/svg" viewBox="0 0 18 18">  <g clip-path="url(#a)">    <path d="M0 0h18v18H0V0Z"/>    <path fill="#A32428" d="M13.86 6.89h1.39V5.5h-1.39v1.39Z"/>    <path fill="#fff" d="M6.563 10.173H4.532a.706.706 0 0 1-.502-.203.76.76 0 0 1-.207-.526v-.133a.698.698 0 0 1 .699-.693h2.041V7.233H4.867c-.716.005-2.617.055-2.617 2.164 0 2.108 1.91 2.12 2.628 2.124l1.685.001v-1.35Zm7.297-2.936v1.431h-1.853V7.233h-1.39v2.473a122.798 122.798 0 0 0-1.646-1.961c-.128-.15-.329-.346-.514-.418a1.719 1.719 0 0 0-.608-.094h-.935v4.289h1.387v-2.41c.239.273 1.658 1.856 1.658 1.856.214.26.506.42.676.477.197.067.327.077.534.077h.838v-1.505h1.853v1.505h1.383V7.237H13.86Z"/>  </g>  <defs>    <clipPath id="a">      <path fill="#fff" d="M0 0h18v18H0z"/>    </clipPath>  </defs></svg>