<svg xmlns="http://www.w3.org/2000/svg" viewBox="0 0 18 18">  <g clip-path="url(#a)">    <path fill="#BA0018" d="M0 0h18v18H0V0Z"/>    <path fill="#fff" fill-rule="evenodd" d="M12.949 4.87c0-.358-.158-.6-.58-.6-1.373 0-3.12 2.492-3.75 3.526-.852 1.402-1.828 3.533-1.828 5.231 0 .66.283 1.154.989 1.154 1.495 0 2.662-1.947 2.662-3.249a1.472 1.472 0 0 0-.04-.425 1.404 1.404 0 0 0-.167-.394.983.983 0 0 1 .146-.15.873.873 0 0 1 .373-.18.98.98 0 0 1 .207-.024c.505 0 .767.332.767.9 0 1.826-1.937 4.218-4.245 4.218-1.75 0-2.69-.886-2.69-2.601 0-3.471 3.647-8.476 7.644-8.476.934 0 1.89.283 1.89 1.312 0 1.356-1.384 2.313-2.555 2.697a7.7 7.7 0 0 1-.395.11c-.134.03-.267.056-.4.077a5.334 5.334 0 0 1-1.279.042 9.31 9.31 0 0 1-.462-.064l.033-.135c1.44-.05 3.68-1.474 3.68-2.97Zm-8.698.055a.859.859 0 0 1 .265-.674.893.893 0 0 1 .68-.242c.086 0 .17.007.254.026.08.023.161.052.235.094a.8.8 0 0 1 .203.154.856.856 0 0 1 .155.2.784.784 0 0 0-.551.783c0 .548.41 1.177.806 1.512l-.065.12c-.78-.288-1.982-.98-1.982-1.973Z" clip-rule="evenodd"/>  </g>  <defs>    <clipPath id="a">      <path fill="#fff" d="M0 0h18v18H0z"/>    </clipPath>  </defs></svg>