<svg xmlns="http://www.w3.org/2000/svg" viewBox="0 0 18 18">  <g clip-path="url(#a)">    <path fill="#fff" d="M0 0h18v18H0V0Z"/>    <path d="m9.577 14.417-.712.833.61-7.545.102 6.712Z"/>    <path fill="#D45620" d="M8.817 3.25s-3.63.745-3.63 4.376c0 0-.183 3.85 3.63 4.326 0 0-5.316.11-5.316-4.365-.001 0-.184-4.337 5.316-4.337ZM9.9 7.652s2.616.364 2.616 2.143c0 0 .131 1.798-2.616 2.032v.088s3.832.055 3.832-2.138c0 0 .131-2.125-3.832-2.125Z"/>  </g>  <defs>    <clipPath id="a">      <path fill="#fff" d="M0 0h18v18H0z"/>    </clipPath>  </defs></svg>