<svg xmlns="http://www.w3.org/2000/svg" viewBox="0 0 18 18">  <g clip-path="url(#a)">    <path fill="#2C67A4" d="M0 0h18v18H0V0Z"/>    <path fill="#fff" fill-rule="evenodd" d="M9.233 13.88c-2.724 0-4.483-1.906-4.483-4.865 0-2.974 1.785-4.895 4.513-4.895 1.152 0 2.008.29 2.753.79l-.197 1.336c-.702-.527-1.532-.931-2.57-.931-1.967 0-3.137 1.38-3.137 3.685 0 2.308 1.182 3.67 3.137 3.67 1.038 0 1.951-.402 2.725-.958l.196 1.237c-.744.542-1.826.931-2.937.931Z" clip-rule="evenodd"/>  </g>  <defs>    <clipPath id="a">      <path fill="#fff" d="M0 0h18v18H0z"/>    </clipPath>  </defs></svg>