<svg xmlns="http://www.w3.org/2000/svg" viewBox="0 0 18 18">  <g clip-path="url(#a)">    <path fill="#081E3E" d="M0 0h18v18H0V0Z"/>    <path fill="#27953D" d="m7.757 7.808-1.672 4.144L4.3 7.845 5.992 3.7l1.765 4.108Z"/>    <path fill="#7FCB28" d="m10.23 10.26 4.126 1.73-4.145 1.71-4.126-1.729 4.144-1.71Zm-.02 0-4.144 1.71 1.691-4.126 4.145-1.728-1.691 4.145Z"/>    <path fill="#1D6436" d="m6.01 3.718.075 8.253-1.766-4.107L6.01 3.718Z"/>    <path fill="#40B83D" d="m7.757 7.827 4.146-1.71-5.818 5.854 1.672-4.144Z"/>    <path fill="#CBE210" d="m10.23 10.26 4.126 1.73-8.271-.019 4.144-1.71Z"/>  </g>  <defs>    <clipPath id="a">      <path fill="#fff" d="M0 0h18v18H0z"/>    </clipPath>  </defs></svg>