<svg xmlns="http://www.w3.org/2000/svg" viewBox="0 0 18 18">  <g clip-path="url(#a)">    <path d="M0 0h18v18H0V0Z"/>    <path fill="#fff" d="M.003.004C5.33-.003 10.658.003 15.985.001c.68.004 1.36-.009 2.041.008.008 2.632-.002 5.265.005 7.898-.57-.003-1.153.04-1.689.247a4.04 4.04 0 0 0-2.12 1.927 84.326 84.326 0 0 1-.697-2.123c-.705-.015-1.41-.004-2.115-.007-.602 2.552-1.2 5.105-1.795 7.658-.269 0-.538 0-.807.004-.464-1.852-.923-3.705-1.385-5.557-.073-.293-.138-.588-.237-.874a5.326 5.326 0 0 0-.13.44c-.472 1.999-.94 3.997-1.417 5.994-.25 0-.5.002-.749.009-.096-.346-.198-.69-.3-1.035-.113-.302.135-.578.21-.86.17.437.232.909.418 1.34.13-.007.154-.133.176-.233.493-2.125 1.01-4.244 1.51-6.367.186 0 .372 0 .558-.004l1.684 6.588.16-.001c.547-2.381 1.095-4.763 1.625-7.147-.163 0-.327 0-.49-.002-.419 1.831-.803 3.67-1.22 5.503-.44-1.607-.82-3.23-1.242-4.842-.071-.212-.061-.486-.211-.65-.42-.025-.84-.008-1.26-.008-.42 1.835-.848 3.668-1.273 5.501-.126-.371-.278-.754-.231-1.155.059-1.139-.169-2.352-.92-3.246-.277-.29-.273-.719-.424-1.071-.155-.061-.332-.023-.495-.034.038.155.08.31.117.467-.24-.093-.557-.13-.643-.416-.876.092-1.755.03-2.635.046 0-2.665.004-5.33-.001-7.995Zm16.467 8.63c.493-.198 1.028-.237 1.554-.236.004.158.006.315.008.473-.721-.066-1.478.089-2.06.536-.726.519-1.097 1.393-1.217 2.254-.106-.29-.261-.584-.275-.893.321-.948 1.036-1.789 1.99-2.134ZM0 8.409c.965.035 1.995-.139 2.895.303.794.361 1.25 1.192 1.44 2.01.244 1.14.203 2.378-.313 3.439-.369.712-1.018 1.344-1.84 1.462-.722.099-1.455.04-2.181.048l.002-.467c.823-.032 1.68.11 2.47-.19.555-.198.964-.682 1.193-1.213.315-.68.381-1.447.366-2.188A3.164 3.164 0 0 0 3.28 9.6c-.385-.442-.978-.612-1.536-.704-.579-.033-1.16-.002-1.74-.016 0-.157-.001-.314-.004-.471Zm11.83.043c.444-.02.888-.003 1.332-.004.832 2.538 1.656 5.08 2.503 7.612.238.093.506-.066.75.03.524.151 1.073.15 1.613.13L18.03 18c-6.009-.013-12.017-.002-18.025-.006.001-.638.001-1.277-.001-1.915.872-.046 1.757.07 2.618-.113.633-.14 1.165-.556 1.573-1.046.13.375.22.764.348 1.14.091.075.222.029.33.043a52.94 52.94 0 0 1 1.162.003c.377-1.688.76-3.374 1.143-5.06.407 1.592.787 3.191 1.185 4.786.03.09.038.196.112.265a33.48 33.48 0 0 0 1.677-.008c.197-.587.448-1.152.656-1.734 1.062.003 2.123 0 3.185 0 .206.562.386 1.135.61 1.69.141.115.38.024.56.053-.245-.745-.503-1.485-.747-2.23-1.313-.016-2.627.003-3.94-.007l.1-.454c1.232-.008 2.466 0 3.698-.003-.459-1.487-.963-2.96-1.452-4.438-.23-.055-.47-.02-.704-.018-.45 1.269-.902 2.537-1.369 3.799.236-1.117.522-2.222.772-3.336.083-.324.134-.67.309-.96ZM.006 9.284c.84.027 1.746-.12 2.517.295.628.352.925 1.07.983 1.76.046.71.03 1.453-.257 2.117-.204.489-.595.916-1.102 1.093-.686.253-1.428.133-2.141.165v-5.43Zm16.827.203c.38-.138.791-.16 1.191-.133.014 1.83.005 3.661.005 5.492-.61.056-1.254-.035-1.764-.394-.617-.397-.902-1.14-.98-1.842-.066-.744.02-1.542.435-2.18.254-.425.638-.785 1.113-.943Zm-5.604 3.423c.398-1.136.8-2.27 1.225-3.396.39 1.125.776 2.252 1.14 3.386-.788.012-1.576-.002-2.365.01Zm4.528 1.832c.282.206.579.408.921.498.438.144.902.115 1.355.132-.004.135-.008.27-.01.404-.707.032-1.428-.047-2.067-.368-.066-.222-.14-.442-.199-.666Z"/>  </g>  <defs>    <clipPath id="a">      <path fill="#fff" d="M0 0h18v18H0z"/>    </clipPath>  </defs></svg>