<svg xmlns="http://www.w3.org/2000/svg" viewBox="0 0 18 18">  <g clip-path="url(#a)">    <path fill="#fff" d="M0 0h18v18H0V0Z"/>    <path fill="#8BD3E6" d="M5.8 3.5v1.874l3.713 1.21 2.874-.937v-.002L5.8 3.5Zm0 2.417v1.874h.001l2.878-.936L5.8 5.917ZM9.513 9l2.874-.936v-.002l-.83-.271-2.878.937.834.272Zm0 2.417 2.874-.936v-.002l-.83-.27-2.878.936.834.272ZM7.845 9 5.8 9.666v.542h.001l2.878-.937L7.845 9Z"/>    <path fill="#343741" d="M5.8 10.209v1.874l2.88-.938-2.88-.935Zm2.879-.938 2.877.938.831-.271v-.002L9.513 9l-.834.271Z"/>    <path fill="#0084D4" d="M12.387 9.936V8.064L9.513 9l2.874.936Zm-6.585.272 2.877.937 2.877-.937-2.877-.937-2.877.937Z"/>    <path fill="#343741" d="M5.8 12.626V14.5l6.587-2.145v-.002l-2.874-.935L5.8 12.626Z"/>    <path fill="#0084D4" d="M12.387 12.353v-1.872l-2.874.936 2.874.936Z"/>    <path fill="#343741" d="m8.679 6.855 2.877.937.831-.27v-.003l-2.874-.936-.834.272Zm.001 1.873L5.8 7.791v.543L7.845 9l.834-.272Z"/>    <path fill="#0084D4" d="M12.387 7.519V5.646l-2.874.937 2.874.936Zm-6.585.272 2.877.938 2.877-.938-2.877-.937-2.877.937Zm-.002.543v1.332L7.845 9 5.8 8.334Z"/>  </g>  <defs>    <clipPath id="a">      <path fill="#fff" d="M0 0h18v18H0z"/>    </clipPath>  </defs></svg>