<svg xmlns="http://www.w3.org/2000/svg" viewBox="0 0 18 18">  <g clip-path="url(#a)">    <path fill="#002B49" d="M0 0h18v18H0V0Z"/>    <path fill="#fff" d="M7.599 13.496H13.5c-.827-.344-1.513-1.066-1.687-1.405H7.879c-.595-.11-.967-.79-1.124-1.124h4.497c-.207-.33-.212-1.095-.282-1.405H4.507c.895 2.867 2.446 3.82 3.092 3.934ZM7.56 4.504h5.94c-.828.35-1.515 1.063-1.687 1.405H7.878c-.595.113-.968.788-1.124 1.124h4.496c-.207.334-.212 1.092-.28 1.405l-6.466.001c.889-2.896 2.41-3.819 3.056-3.935Z"/>  </g>  <defs>    <clipPath id="a">      <path fill="#fff" d="M0 0h18v18H0z"/>    </clipPath>  </defs></svg>