<svg xmlns="http://www.w3.org/2000/svg" viewBox="0 0 18 18">  <g clip-path="url(#a)">    <path fill="#fff" d="M0 0h18v18H0V0Z"/>    <path fill="#EF3E42" d="M5.674 5H3.93c0 4.967 4.033 9 8.986 9h.07v-1.744h-.07c-3.99 0-7.242-3.251-7.242-7.256Z"/>    <path fill="#EF3E42" d="M12.93 10.526H13V8.823h-.07A3.817 3.817 0 0 1 9.12 5H7.406a5.52 5.52 0 0 0 5.525 5.526ZM10.81 5c0 1.158.948 2.107 2.106 2.107h.07V5H10.81Z"/>  </g>  <defs>    <clipPath id="a">      <path fill="#fff" d="M0 0h18v18H0z"/>    </clipPath>  </defs></svg>