<svg xmlns="http://www.w3.org/2000/svg" viewBox="0 0 18 18">  <g clip-path="url(#a)">    <path fill="url(#b)" d="M0 0h18v18H0V0Z"/>    <path fill="#fff" d="M8.39 9.155h1.22v-.352H8.39v.352ZM9 1.146a7.855 7.855 0 0 0-1.845 15.488v-2.562a5.406 5.406 0 0 1-3.55-4.917h3.55v-.352H3.607a5.396 5.396 0 0 1 10.786 0h-3.549v.352h3.55a5.409 5.409 0 0 1-3.55 4.917v2.563A7.854 7.854 0 0 0 9 1.148v-.002Zm-.61 13.216v2.468a7.79 7.79 0 0 0 1.22 0v-2.468a5.317 5.317 0 0 1-1.22 0Z"/>    <path fill="url(#c)" d="M8.39 9.155h1.22v-.352H8.39v.352ZM9 1.146a7.855 7.855 0 0 0-1.845 15.488v-2.562a5.406 5.406 0 0 1-3.55-4.917h3.55v-.352H3.607a5.396 5.396 0 0 1 10.786 0h-3.549v.352h3.55a5.409 5.409 0 0 1-3.55 4.917v2.563A7.854 7.854 0 0 0 9 1.148v-.002Zm-.61 13.216v2.468a7.79 7.79 0 0 0 1.22 0v-2.468a5.317 5.317 0 0 1-1.22 0Z" opacity=".6" style="mix-blend-mode:darken"/>    <path fill="#333132" d="m3.296 6.003-.367-.13-.389 1.105-.301-.106.41-1.169-.367-.128-.579 1.648 1.575.553.169-.48-.54-.19.389-1.103Zm-.043-1.82 1.258 1.099.363-.378L3.58 3.771l-.326.412ZM7 2.435a.957.957 0 0 0-.11.02.53.53 0 0 0-.103.035l-.255.103-.432.182-.12.055a.51.51 0 0 1-.107.035.12.12 0 0 1-.146-.07.105.105 0 0 1 .028-.141.312.312 0 0 1 .085-.056l.119-.059.27-.127.127-.053a.705.705 0 0 1 .137-.047.133.133 0 0 1 .128.06l.033.052.462-.212-.047-.102a.478.478 0 0 0-.138-.186.314.314 0 0 0-.182-.064.755.755 0 0 0-.203.026 1.488 1.488 0 0 0-.259.095 9.57 9.57 0 0 1-.214.092 8.177 8.177 0 0 0-.226.098c-.286.13-.467.232-.544.305a.343.343 0 0 0-.107.28.884.884 0 0 0 .093.295c.03.067.07.129.117.185.08.095.191.123.331.085a1.17 1.17 0 0 0 .224-.079l.238-.094.139-.054.283-.116.096-.039.096-.036a.114.114 0 0 1 .149.07c.036.08.008.141-.086.184l-.122.056-.338.156-.134.056a.7.7 0 0 1-.112.043.255.255 0 0 1-.074.012c-.051-.004-.096-.047-.133-.128l-.462.213.053.104a.582.582 0 0 0 .114.17.31.31 0 0 0 .127.083c.055.015.112.02.169.015a.55.55 0 0 0 .185-.052c.03-.009.06-.02.09-.031.029-.011.057-.024.086-.037.068-.032.166-.074.293-.127.127-.054.197-.085.212-.092l.127-.063.177-.085a.91.91 0 0 0 .067-.035l.064-.036c.23-.145.283-.35.161-.614-.11-.24-.252-.35-.427-.33Zm3.368-.765-.719.544-.225-.026.072-.62-.506-.058-.19 1.658.505.058.07-.61.214.024.688.698.736.086-.95-.948 1.027-.724-.722-.083Zm2.826 1.55 1.02.85.249-.3-1.411-1.174-1.069 1.282 1.424 1.185.248-.299-1.032-.86.193-.231.964.802.232-.278-.964-.801.146-.176Zm3.036 3.8-.024-.09a1.964 1.964 0 0 0-.038-.11l-.51-1.382-1.566.579.176.477.388-.143.28.757c.037.097.042.165.018.204a.377.377 0 0 1-.18.106l-.144.058.177.477.191-.07c.1-.029.19-.081.265-.153.041-.05.056-.149.044-.293.087.116.17.18.246.19a.673.673 0 0 0 .31-.054 1.224 1.224 0 0 0 .224-.112.436.436 0 0 0 .093-.084c.072-.088.086-.206.05-.358Zm-.493 0a.192.192 0 0 1-.121.1c-.093.035-.159.032-.198-.008a.176.176 0 0 1-.031-.04.358.358 0 0 1-.024-.052l-.029-.08-.027-.072-.246-.667.37-.137.241.656.048.141a.227.227 0 0 1 .017.159Z"/>    <path fill="#004990" d="M10.845 9.155v4.917a5.408 5.408 0 0 0 3.55-4.917h-3.55Zm-3.69 4.917V9.155h-3.55a5.407 5.407 0 0 0 3.55 4.917ZM8.39 9.155v5.207a5.41 5.41 0 0 0 1.22 0V9.155H8.39Z"/>    <path fill="#FE5F10" d="M10.845 4.538v4.27h3.548a5.396 5.396 0 0 0-10.786 0h3.549V4.412l.114-.043c.297-.11.603-.192.915-.244l.206-.034V8.8h1.218V4.093l.206.034c.312.052.618.134.915.244l.114.043v.125Z"/>    <path fill="url(#d)" d="M10.845 4.538v4.27h3.548a5.396 5.396 0 0 0-10.786 0h3.549V4.412l.114-.043c.297-.11.603-.192.915-.244l.206-.034V8.8h1.218V4.093l.206.034c.312.052.618.134.915.244l.114.043v.125Z"/>    <path fill="url(#e)" d="M10.845 9.157v4.916a5.407 5.407 0 0 0 3.55-4.916h-3.55Z" opacity=".4" style="mix-blend-mode:darken"/>    <path fill="url(#f)" d="M7.155 14.073V9.157h-3.55a5.406 5.406 0 0 0 3.55 4.916Z" opacity=".4" style="mix-blend-mode:darken"/>    <path fill="url(#g)" d="M8.39 9.157v5.206a5.41 5.41 0 0 0 1.22 0V9.157H8.39Z" opacity=".4" style="mix-blend-mode:darken"/>    <g opacity=".25" style="mix-blend-mode:darken">      <path fill="#fff" d="M10.845 9.157v4.916a5.407 5.407 0 0 0 3.55-4.916h-3.55Zm-3.69 4.916V9.157h-3.55a5.406 5.406 0 0 0 3.55 4.916Zm1.236.29a5.41 5.41 0 0 0 1.218 0V9.157H8.391v5.206Z"/>      <path fill="#232121" d="M10.845 9.157v4.916a5.407 5.407 0 0 0 3.55-4.916h-3.55Zm-3.69 4.916V9.157h-3.55a5.406 5.406 0 0 0 3.55 4.916Zm1.236.29a5.41 5.41 0 0 0 1.218 0V9.157H8.391v5.206Z" opacity=".8" style="mix-blend-mode:darken"/>    </g>    <path fill="url(#h)" d="M10.845 4.538v4.27h3.548a5.396 5.396 0 0 0-10.786 0h3.549V4.415l.114-.043c.297-.11.603-.192.915-.244l.206-.034v4.71h1.218v-4.71l.206.034c.312.05.618.133.915.244l.114.042v.125Z" opacity=".17" style="mix-blend-mode:darken"/>    <path fill="#fff" d="m8.39 4.092-.205.034a4.855 4.855 0 0 0-.915.244l-.114.043.176.122c.286-.106.581-.185.882-.235l.177-.208Z"/>    <path fill="url(#i)" d="M9 .97a8.03 8.03 0 0 0-1.67 15.886l-.175-.22a7.85 7.85 0 1 1 3.69 0l-.176.22A8.031 8.031 0 0 0 9 .968Zm.61 15.86a7.84 7.84 0 0 1-1.22 0l-.175.162a7.976 7.976 0 0 0 1.57 0l-.176-.162Z"/>    <path fill="#fff" d="m10.845 4.41-.115-.042a4.867 4.867 0 0 0-.915-.244l-.206-.034.177.208c.301.052.597.132.883.24l.175-.122v-.005Z"/>    <path fill="url(#j)" d="M8.39 16.83V4.092l-.176.209v12.691l.177-.162Z"/>    <path fill="url(#k)" d="M7.156 4.539v12.097l.175.22V4.539l-.175-.128v.128Z"/>    <path fill="url(#l)" d="M10.845 16.635V4.414l-.176.122v12.319l.176-.22Z"/>    <path fill="url(#m)" d="M9.61 4.3v12.53l.176.162V4.3l-.177-.208V4.3Z"/>    <path fill="url(#n)" d="M8.39 8.808h1.22v-.251H8.39v.251Zm5.988-.251h-3.534v.246h3.549a5.26 5.26 0 0 0-.015-.246Zm-10.771.246h3.548v-.246H3.622a5.22 5.22 0 0 0-.015.246Z"/>  </g>  <defs>    <radialGradient id="b" cx="0" cy="0" r="1" gradientTransform="translate(8.968 .424) scale(18.441)" gradientUnits="userSpaceOnUse">      <stop stop-color="#fff"/>      <stop offset=".11" stop-color="#FBFBFB"/>      <stop offset=".21" stop-color="#F1F1F1"/>      <stop offset=".27" stop-color="#E6E6E6"/>      <stop offset=".56" stop-color="#7F7F7F"/>      <stop offset="1" stop-color="#1F1F1F"/>    </radialGradient>    <radialGradient id="c" cx="0" cy="0" r="1" gradientTransform="translate(9.032 6.291) scale(10.4844)" gradientUnits="userSpaceOnUse">      <stop stop-color="#fff"/>      <stop offset=".23" stop-color="#FCFCFC"/>      <stop offset=".4" stop-color="#F3F3F3"/>      <stop offset=".55" stop-color="#E3E3E3"/>      <stop offset=".69" stop-color="#CCC"/>      <stop offset=".82" stop-color="#AFAFAF"/>      <stop offset=".93" stop-color="#8F8F8F"/>      <stop offset=".96" stop-color="#A2A2A3"/>      <stop offset="1" stop-color="#BABCBE"/>    </radialGradient>    <radialGradient id="d" cx="0" cy="0" r="1" gradientTransform="translate(9 4.124) scale(7.04334)" gradientUnits="userSpaceOnUse">      <stop stop-color="#F79220"/>      <stop offset=".17" stop-color="#F57E21"/>      <stop offset=".41" stop-color="#F26822"/>      <stop offset=".56" stop-color="#F16022"/>    </radialGradient>    <radialGradient id="e" cx="0" cy="0" r="1" gradientTransform="translate(8.936 8.968) scale(5.6724)" gradientUnits="userSpaceOnUse">      <stop stop-color="#fff"/>      <stop offset=".06" stop-color="#F1F1F1"/>      <stop offset=".1" stop-color="#E5E5E5"/>      <stop offset=".21" stop-color="#B7B7B7"/>      <stop offset=".33" stop-color="#888"/>      <stop offset=".44" stop-color="#636363"/>      <stop offset=".55" stop-color="#494949"/>      <stop offset=".64" stop-color="#393939"/>      <stop offset=".71" stop-color="#333"/>      <stop offset=".77" stop-color="#373737"/>      <stop offset=".82" stop-color="#434343"/>      <stop offset=".88" stop-color="#565656"/>      <stop offset=".93" stop-color="#727272"/>      <stop offset=".98" stop-color="#959595"/>      <stop offset="1" stop-color="#A3A3A3"/>    </radialGradient>    <radialGradient id="f" cx="0" cy="0" r="1" gradientTransform="translate(8.936 8.968) scale(5.6724)" gradientUnits="userSpaceOnUse">      <stop stop-color="#fff"/>      <stop offset=".06" stop-color="#F1F1F1"/>      <stop offset=".1" stop-color="#E5E5E5"/>      <stop offset=".21" stop-color="#B7B7B7"/>      <stop offset=".33" stop-color="#888"/>      <stop offset=".44" stop-color="#636363"/>      <stop offset=".55" stop-color="#494949"/>      <stop offset=".64" stop-color="#393939"/>      <stop offset=".71" stop-color="#333"/>      <stop offset=".77" stop-color="#373737"/>      <stop offset=".82" stop-color="#434343"/>      <stop offset=".88" stop-color="#565656"/>      <stop offset=".93" stop-color="#727272"/>      <stop offset=".98" stop-color="#959595"/>      <stop offset="1" stop-color="#A3A3A3"/>    </radialGradient>    <radialGradient id="g" cx="0" cy="0" r="1" gradientTransform="translate(8.936 8.968) scale(5.6724)" gradientUnits="userSpaceOnUse">      <stop stop-color="#fff"/>      <stop offset=".06" stop-color="#F1F1F1"/>      <stop offset=".1" stop-color="#E5E5E5"/>      <stop offset=".21" stop-color="#B7B7B7"/>      <stop offset=".33" stop-color="#888"/>      <stop offset=".44" stop-color="#636363"/>      <stop offset=".55" stop-color="#494949"/>      <stop offset=".64" stop-color="#393939"/>      <stop offset=".71" stop-color="#333"/>      <stop offset=".77" stop-color="#373737"/>      <stop offset=".82" stop-color="#434343"/>      <stop offset=".88" stop-color="#565656"/>      <stop offset=".93" stop-color="#727272"/>      <stop offset=".98" stop-color="#959595"/>      <stop offset="1" stop-color="#A3A3A3"/>    </radialGradient>    <radialGradient id="h" cx="0" cy="0" r="1" gradientTransform="translate(8.978 3.545) scale(11.0153)" gradientUnits="userSpaceOnUse">      <stop stop-color="#fff"/>      <stop offset=".08" stop-color="#F9F9F9"/>      <stop offset=".19" stop-color="#E9E9E9"/>      <stop offset=".31" stop-color="#CDCDCD"/>      <stop offset=".44" stop-color="#A7A7A7"/>      <stop offset=".57" stop-color="#767676"/>      <stop offset=".72" stop-color="#3B3B3B"/>      <stop offset=".79" stop-color="#1B1B1B"/>      <stop offset=".89" stop-color="#646464"/>      <stop offset=".96" stop-color="#919191"/>      <stop offset="1" stop-color="#A3A3A3"/>    </radialGradient>    <radialGradient id="i" cx="0" cy="0" r="1" gradientTransform="translate(9.032 17.126) scale(16.348)" gradientUnits="userSpaceOnUse">      <stop stop-color="#F2F2F2"/>      <stop offset=".18" stop-color="#fff"/>      <stop offset=".31" stop-color="#CBCBCB"/>      <stop offset=".55" stop-color="#767676"/>      <stop offset=".73" stop-color="#404040"/>      <stop offset=".81" stop-color="#2B2B2B"/>      <stop offset=".84" stop-color="#343434"/>      <stop offset=".9" stop-color="#4C4C4C"/>      <stop offset=".98" stop-color="#747474"/>      <stop offset="1" stop-color="gray"/>    </radialGradient>    <radialGradient id="j" cx="0" cy="0" r="1" gradientTransform="translate(10.094 2.746) scale(11.2441)" gradientUnits="userSpaceOnUse">      <stop stop-color="#F2F2F2"/>      <stop offset=".1" stop-color="#E5E5E5"/>      <stop offset=".13" stop-color="#BDBDBD"/>      <stop offset=".16" stop-color="#9B9B9B"/>      <stop offset=".19" stop-color="gray"/>      <stop offset=".22" stop-color="#6D6D6D"/>      <stop offset=".25" stop-color="#626262"/>      <stop offset=".29" stop-color="#5E5E5E"/>      <stop offset=".63" stop-color="#414141"/>      <stop offset="1" stop-color="#262626"/>    </radialGradient>    <radialGradient id="k" cx="0" cy="0" r="1" gradientTransform="translate(9.048 3.115) scale(10.8528)" gradientUnits="userSpaceOnUse">      <stop stop-color="#F2F2F2"/>      <stop offset=".1" stop-color="#E5E5E5"/>      <stop offset=".13" stop-color="#B7B7B7"/>      <stop offset=".15" stop-color="#8D8D8D"/>      <stop offset=".18" stop-color="#6B6B6B"/>      <stop offset=".2" stop-color="#505050"/>      <stop offset=".23" stop-color="#3D3D3D"/>      <stop offset=".26" stop-color="#323232"/>      <stop offset=".29" stop-color="#2E2E2E"/>      <stop offset="1" stop-color="#1A1A1A"/>    </radialGradient>    <radialGradient id="l" cx="0" cy="0" r="1" gradientTransform="translate(12.546 3.115) scale(10.8509)" gradientUnits="userSpaceOnUse">      <stop stop-color="#F2F2F2"/>      <stop offset=".1" stop-color="#E5E5E5"/>      <stop offset=".13" stop-color="#B7B7B7"/>      <stop offset=".15" stop-color="#8D8D8D"/>      <stop offset=".18" stop-color="#6B6B6B"/>      <stop offset=".2" stop-color="#505050"/>      <stop offset=".23" stop-color="#3D3D3D"/>      <stop offset=".26" stop-color="#323232"/>      <stop offset=".29" stop-color="#2E2E2E"/>      <stop offset="1" stop-color="#1A1A1A"/>    </radialGradient>    <radialGradient id="m" cx="0" cy="0" r="1" gradientTransform="translate(11.492 2.746) scale(11.2441)" gradientUnits="userSpaceOnUse">      <stop stop-color="#F2F2F2"/>      <stop offset=".1" stop-color="#E5E5E5"/>      <stop offset=".13" stop-color="#BDBDBD"/>      <stop offset=".16" stop-color="#9B9B9B"/>      <stop offset=".19" stop-color="gray"/>      <stop offset=".22" stop-color="#6D6D6D"/>      <stop offset=".25" stop-color="#626262"/>      <stop offset=".29" stop-color="#5E5E5E"/>      <stop offset=".63" stop-color="#414141"/>      <stop offset="1" stop-color="#262626"/>    </radialGradient>    <linearGradient id="n" x1="9" x2="9" y1="8.506" y2="8.794" gradientUnits="userSpaceOnUse">      <stop stop-color="#F05323" stop-opacity="0"/>      <stop offset=".19" stop-color="#F05323" stop-opacity=".18"/>      <stop offset=".62" stop-color="#F05323" stop-opacity=".65"/>      <stop offset=".94" stop-color="#F05323"/>    </linearGradient>    <clipPath id="a">      <path fill="#fff" d="M0 0h18v18H0z"/>    </clipPath>  </defs></svg>