<svg xmlns="http://www.w3.org/2000/svg" viewBox="0 0 18 18">  <g clip-path="url(#a)">    <path fill="#fff" d="M0 0h18v18H0V0Z"/>    <path fill="#fff" d="M10.196 7.915A4.845 4.845 0 0 0 9.98 9.93v.008c.043.438.136.915.282 1.46.118.444.157.885.14 1.308-.101 1.085-.76 1.902-1.553 2.359.057-.488.04-1.071-.09-1.783-.167-.928-.517-1.236-.567-1.298-.003-.003-.007-.007-.005-.011.001-.003.01-.007.013-.01.293-.182.548-.403.668-.505.092-.079.056-.114-.036-.072a4.084 4.084 0 0 1-1.173.32c-.456.057-.997.05-1.585-.064 0 0-.412-.06-.35-.48.016-.117.075-.238.122-.354a.458.458 0 0 0 .033-.243c-.005-.023-.034-.066-.051-.092a.192.192 0 0 1-.01-.185c.027-.063.135-.156.287-.171.174-.016.388.009.552-.02.24-.043.382-.205.354-.258-.019-.035-.232.008-.304.022-.107.022-.301-.064-.403-.098-.157-.051-.24-.092-.376-.034-.085.037-.152.208-.176.129-.011-.037.01-.078.04-.121.027-.041.083-.119.09-.162.009-.05.02-.12-.117-.218a1.556 1.556 0 0 1-.205-.166c-.132-.133-.155-.27.098-.485.18-.154.578-.565.7-.816.019-.04.115-.197.01-.354a1.681 1.681 0 0 1-.118-.186c-.059-.112-.017-.213.079-.363.047-.073.084-.162.184-.476.108-.344.292-.66.538-.923.019-.016.299-.326.615-.419.078.127.24.3.564.467.332.17.697.263.697.263s.455.13.916.296c.367.132.75.609.75.707 0 .204-.2.394-.397 1.012"/>    <path fill="url(#b)" d="M3.6 8.474c0 2.617 1.874 4.792 4.34 5.226-.016.17-.04.34-.072.51-.17.837-.743 1.607-1.054 1.79.83-.072 1.49-.32 1.883-.709h-.001l-.31-.003c.156-.06.311-.135.462-.221v-.002c.058-.487.04-1.07-.088-1.782-.168-.928-.518-1.236-.568-1.297-.003-.004-.007-.008-.005-.012.001-.003.01-.007.013-.01.293-.182.548-.403.668-.505.092-.078.056-.114-.036-.071a4.089 4.089 0 0 1-1.173.32 5.1 5.1 0 0 1-1.585-.065s-.412-.06-.35-.48c.016-.117.075-.237.122-.354a.457.457 0 0 0 .033-.242.361.361 0 0 0-.052-.092.192.192 0 0 1-.01-.186c.027-.063.136-.156.288-.17.076-.008.159-.007.242-.006.108 0 .217.001.31-.015.24-.042.382-.204.354-.257-.02-.036-.232.007-.305.022-.106.02-.3-.065-.402-.098-.157-.052-.24-.093-.376-.035-.085.037-.152.209-.176.129-.011-.037.01-.078.04-.121.027-.041.082-.118.09-.162.009-.05.02-.12-.117-.217a1.571 1.571 0 0 1-.205-.167c-.132-.133-.155-.27.098-.485.18-.154.578-.565.7-.816.018-.04.115-.196.01-.354a1.757 1.757 0 0 1-.118-.185c-.059-.113-.017-.213.079-.364.047-.073.084-.162.184-.476.108-.344.292-.659.538-.922.016-.051.045-.455.28-.832.087-.164.194-.317.32-.453.094-.101.243-.219.438-.332a3.34 3.34 0 0 1 .718-.306 3.904 3.904 0 0 1 1.17-.16c.328.005.64.031 1.01.13l.045.013a5.175 5.175 0 0 0-2.185-.482C5.949 3.168 3.6 5.544 3.6 8.474Zm2.094.653c-.006.018.01.027.03.036.097.045.142.069.316.173.204.122.292.021.336-.057.012-.021.03-.108.01-.138-.02-.03-.057-.011-.096.028-.045.043-.153.02-.19.016-.035-.004-.202-.046-.31-.07a.241.241 0 0 0-.05-.005c-.028 0-.042.008-.046.017Z"/>    <path fill="#413691" d="M8.079 6.675c-.026-.008-.721-.16-.952-.145a.83.83 0 0 0-.55.288.441.441 0 0 0-.107.215c-.01.11.07.164.164.133.069-.021.119-.07.19-.176.043-.064.07-.147.137-.19.11-.07.301-.087.612-.079.238.006.43.018.476.02.087.004.067-.054.03-.066Z"/>    <path fill="#413691" d="M7.677 7.32c-.13-.076-.305-.072-.339-.078-.034-.006-.04-.04.01-.066.071-.034.203-.006.207-.028.005-.02-.025-.068-.125-.106a.59.59 0 0 0-.231-.027c-.214.022-.327.155-.352.18a.217.217 0 0 0-.07.116c-.012.075.036.132.081.206.023.037.044.064.051.092.011.04.004.057-.03.083-.037.03-.015.08.06.06a.455.455 0 0 0 .196-.102c.092-.078.09-.127.154-.19.064-.065.265-.064.369-.05.121.017.15-.013.019-.09"/>    <path fill="#413691" d="M14.148 8.312c-.002-.236-.069-.708-.08-.811a4.415 4.415 0 0 0-.316-1.232c-.24-.598-.433-1.02-1.018-1.597a4.385 4.385 0 0 0-1.7-1.02 3.926 3.926 0 0 0-1.057-.143c-1.168-.019-2.025.472-2.326.796a2.074 2.074 0 0 0-.32.453c-.234.377-.264.781-.28.832.018-.016.299-.326.615-.42.078.128.24.301.564.467.332.17.696.264.696.264s.456.13.917.295c.367.132.75.61.75.707 0 .204-.2.394-.397 1.012a4.842 4.842 0 0 0-.215 2.025c.042.438.135.914.281 1.46.118.443.156.884.14 1.307-.101 1.086-.76 1.902-1.553 2.36l-.001-.002v.002c-.148.085-.303.16-.463.22l.31.004c.666-.008 1.607-.136 2.414-.982.278-.292.497-.597.634-.885.057-.12.297-.547.433-1.395l.077-.478s.038.26.043.491c.006.318.018.717-.171 1.323.064-.014.378-.248.75-.752a6.13 6.13 0 0 0 .377-.575c.535-.837.914-1.835.896-3.726Z"/>    <path fill="#EF3138" d="M11.26 6.458c-.003.036.01.05.043.023.145-.117.385-.296.712-.354.392-.07.614-.262.716-.478.061-.13.11-.364.302-.504.06-.045-.002-.06-.052-.051a.979.979 0 0 0-.475.263c-.112-.12-.104-.285-.088-.38.007-.029-.015-.05-.053-.019a.738.738 0 0 0-.242.34s-.102-.074-.05-.259c.01-.03-.012-.019-.023-.011-.184.134-.168.335-.17.363 0 0-.186-.104-.47-.143-.05-.19-.354-.24-.404-.045-.045.177.248.31.373.164 0 0 .402.042.758.4.036.036.048.065.026.085-.017.016-.068-.015-.131-.059-.07-.05-.556-.362-.977-.147-.021.01-.022.03-.003.034.08.023.257.084.3.2-.111.029-.291.097-.42.363-.034.069.01.078.046.05.044-.033.306-.177.405-.166 0 0-.09.13-.122.33Zm3.351-2.002c-.017.134.025.513.128.865.11.372-.084.7-.418.893-.105-.162-.316-.244-.503-.25-.11-.004-.08.04-.026.063.778.326.504 1.233.403 1.425-.103.197-.078.457-.078.457-.242-.071-.464-.024-.659.006-.386.062-.643-.007-.845-.099-.16-.073-.41-.24-.449-.557-.007-.058-.044-.098-.067.01-.04.183-.012.408.12.549-.144.708-1.534.656-1.534.656-.092-.305-.724-.398-.866-.843-.068-.21-.013-.43-.013-.43a.635.635 0 0 0 .692-.235c.069-.085.014-.09-.035-.058-.46.29-.889 0-.978-.41-.12-.448-.557-.598-.557-.598.319-.2.23-.547.395-.84.437-.773 1.058-.541 1.058-.541.06.183.243.316.423.37.105.032.088-.02.04-.054-.44-.318-.332-.824.016-1.06.606-.413.71-.592.71-.592.11.085.406.158.716.185.696.062.86.424.874.563a.674.674 0 0 0-.287.381c-.033.105.02.089.054.041.271-.37.605-.3.918-.157.197.09.484.322.768.26Z"/>  </g>  <defs>    <linearGradient id="b" x1="7.528" x2="7.238" y1="4.419" y2="11.653" gradientUnits="userSpaceOnUse">      <stop stop-color="#D2068A"/>      <stop offset=".737" stop-color="#413691"/>      <stop offset="1" stop-color="#413691"/>    </linearGradient>    <clipPath id="a">      <path fill="#fff" d="M0 0h18v18H0z"/>    </clipPath>  </defs></svg>