<svg xmlns="http://www.w3.org/2000/svg" viewBox="0 0 18 18">  <g clip-path="url(#a)">    <path fill="url(#b)" d="M0 0h18v18H0V0Z"/>    <path fill="#fff" stroke="#fff" stroke-width=".1" d="m12.184 13.503.03.04h.001l-.031-.04Zm0 0 .032.039-.032-.039Zm-4.969-.271v-.001L6.9 10.578l-1.876.63 2.191 2.024Zm0 0 .05-.007-.05.007Zm.305-9.204c-.175.058-.958.315-1.511.854l5.583 4.29a622.72 622.72 0 0 1 1.605-.286l.203-.036.056-.01.015-.002h.004v-.001h.001l-.008-.05.008.05.025-.005.011-.022.533-1.08.043-.087-.096.015c-.137.022-1.27.212-2.495.532-.025-.425-.143-2.604-.04-3.742l.014-.112V4.33c.02-.155.052-.397.002-.586a.388.388 0 0 0-.162-.241c-.088-.055-.206-.07-.358-.037a4.04 4.04 0 0 0-.478.111c-.221.066-.476.166-.65.306l-.002.002a.23.23 0 0 1-.03.021l-.001.001-.001.001a.613.613 0 0 0-.06.044.177.177 0 0 0-.05.064.117.117 0 0 0 .002.093.24.24 0 0 0 .062.08l.005.009.003.004c.028.04.061.087.09.175.031.09.058.224.068.434v.002l.14 1.96.09 1.264.028.412.008.115v.002l-1.593.519-.007-.071a108.642 108.642 0 0 1-.148-1.541c-.081-.918-.165-1.993-.173-2.631v-.099c0-.075 0-.174-.01-.275a.89.89 0 0 0-.078-.302.362.362 0 0 0-.23-.2c-.109-.03-.246-.012-.418.062Zm-2.994 6.093c.405-.316.973-.589 1.442-.783a11.9 11.9 0 0 1 .77-.288l.006-.002.072.62c-.52.192-1.02.348-1.427.457-.208.055-.39.098-.538.127-.149.03-.258.044-.322.043h-.005c-.046.005-.064-.004-.07-.01-.005-.003-.01-.011-.008-.03a.216.216 0 0 1 .08-.133Z"/>  </g>  <defs>    <radialGradient id="b" cx="0" cy="0" r="1" gradientTransform="rotate(135.881 9.25 3.748) scale(22.9837 21.5969)" gradientUnits="userSpaceOnUse">      <stop stop-color="#00A8AB"/>      <stop offset=".715" stop-color="#0069B3"/>    </radialGradient>    <clipPath id="a">      <path fill="#fff" d="M0 0h18v18H0z"/>    </clipPath>  </defs></svg>