<svg xmlns="http://www.w3.org/2000/svg" viewBox="0 0 18 18">  <g clip-path="url(#a)">    <path fill="#BF2828" d="M0 0h18v18H0V0Z"/>    <path fill="#fff" d="M7.41 10.845c-.56-.36-1.314-.42-2.534-.087-1.3.307-1.733.5-2.307.107-.22-.194-.3-.507-.24-.954.134-.733.5-1.433 1.154-2.213.366-.407.7-.753 1.146-.893.34-.087.307.18.267.22a.296.296 0 0 0-.173.046c-.047.034-.174.154-.18.307-.007.24.233.187.34.06.113-.147.28-.427.153-.687a.383.383 0 0 0-.273-.18c-.407-.026-.787.174-1.14.387-.767.533-1.38 1.273-1.727 2.08-.2.487-.38 1.187-.107 1.753.213.394.647.607 1.167.56.367-.04.807-.153 1.1-.226.3-.073 1.813-.594 2.313.313 0 0 .167-.32.58-.327.34-.033.834.1 1.194.36-.113-.18-.447-.446-.734-.626Z"/>    <path fill="#fff" fill-rule="evenodd" d="M5.03 7.791c.293.214.013.78 0 .874.106.02.426-.214.62-.42.153-.167.406-.387.573-.447.12-.06.306-.08.433-.007.087.054.14.147.147.254.013.293-.327.766-.494.526-.033-.106.007-.22.114-.333.053-.06.12-.08.206-.08.034-.053.027-.127-.026-.16-.06-.04-.167-.013-.274.067-.366.286-.693.773-.88 1.306-.033.1-.053.247.007.354.167.246.54-.1.54-.1.253-.227.5-.54.693-.82.5-.72 1.167-1.347 1.46-.94a.1.1 0 0 0 .014.026l.053-.086h.474l-1.007 1.74c-.02.046-.033.107 0 .133.027.02.073-.007.073-.007.26-.126.66-.706.66-.706h.16c-.26.373-.573.806-.966 1.087-.107.073-.254.153-.394.1-.153-.094-.12-.214-.113-.354 0 0-.374.454-.687.36-.107-.033-.267-.12-.147-.547 0 0 .007-.04.014-.066-.027.026-.08.073-.08.073-.294.287-.627.607-1.047.54-.313-.1-.3-.42-.313-.506-.034-.287.313-.867.313-.874a3.13 3.13 0 0 1-.24.06 7.337 7.337 0 0 0-.113.187c-.114.193-.234.4-.394.566l-.026.034c-.234.267-.774.773-1.067.427-.2-.294-.02-.934.4-1.48.46-.607 1.027-.967 1.313-.78Zm2.286.834c-.373.5-.493.86-.5.98-.007.04.007.073.04.093a.13.13 0 0 0 .087.007c.166-.094.266-.227.367-.38l.073-.107c.227-.38.467-.8.673-1.167-.006-.06-.093-.146-.313.047-.067.06-.333.4-.427.527Zm-2.58.226c.007-.013.007-.02 0-.02v-.006c-.14-.04-.327-.127-.427-.32v-.007h-.006c-.16.227-.327.473-.427.753l-.013.04c-.034.114-.08.26.006.36.04.054.12.04.18.02.194-.1.347-.306.474-.473l.206-.333.007-.014Zm.2-.4a1.09 1.09 0 0 0 .053-.28.257.257 0 0 0-.053-.173c-.067-.047-.173-.02-.247.027-.073.053-.24.206-.2.406.027.1.127.187.254.227l.04.007c.026.006.046.013.06 0l.093-.214Zm5.98.64c.107.207.04.487-.013.674-.24.66-.727 1.233-1.267 1.5-.246.1-.6.16-.866-.12-.314-.327-.274-.88-.147-1.253.167-.56.48-1.127.98-1.78.687-.834 1.327-1.314 2.013-1.514.187-.047.447-.067.607.107 0 0 .073-.02.16-.054a1.367 1.367 0 0 1 1.147.107c.227.127.453.253.673.387l.133.086c-.093.094-.26.267-.36.387-.206-.093-.826-.567-1.113-.66 0 0-.373-.167-.553-.073a.536.536 0 0 1 .006.106c0 .274-.106.514-.22.76-.2.327-.446.68-.826.767-.08.007-.18 0-.24-.107-.107-.2 0-.426.08-.593.313-.66.96-1.013.96-1.013a.48.48 0 0 0-.387.046c-.687.34-1.2.98-1.667 1.607-.453.673-.766 1.26-.84 1.954-.02.246.06.433.214.526.24.154.52-.04.706-.2a2.71 2.71 0 0 0 .56-.74c.187-.373.234-.76.094-.807-.16-.04-.3.127-.374.234-.186.253-.226.54-.226.54a1.91 1.91 0 0 0-.627.473c.04-.3.093-.486.193-.713.194-.447.56-.754.934-.787a.275.275 0 0 1 .266.153Zm1.247-2.066c0-.034 0-.054-.007-.087-.393.2-.76.593-.973 1.06-.147.347.02.387.113.367.16-.04.794-.52.867-1.34Z" clip-rule="evenodd"/>    <path fill="#fff" d="M15.943 7.125c-.34.193-.7.32-1.127.28-.12.133-.233.273-.34.413.607.153 1.247-.187 1.6-.513.38-.327.574-.74.574-.74s-.287.326-.707.56Zm-6.48.686h-.447l-.253.414h.447l.253-.414Z"/>    <path fill="#fff" fill-rule="evenodd" d="M14.81 10.885c.28-.167.5-.507.673-.76h.167c-.127.207-.593.92-.987 1.133-.113.06-.207.134-.333.107-.187-.027-.193-.253-.16-.387-.107.107-.333.327-.534.38-.18.04-.413-.033-.346-.48-.3.374-.667.654-.887.38-.153-.193-.08-.52.087-1l.06-.186h-.007a1.46 1.46 0 0 1-.26.033c-.26.453-.587.947-1.053 1.193-.074.04-.247.114-.387.04-.133-.073-.187-.226-.16-.466.04-.307.173-.574.307-.82.253-.394.6-.867 1.06-1.06a.467.467 0 0 1 .38-.014c.106.08.133.187.133.307 0 .053-.007.113-.013.166-.04.194-.12.367-.187.5.034.02.213-.026.26-.06.647-1.346 1.387-2.34 2.267-3.026l.007-.007c.173-.12.386-.267.58-.227.06.007.1.06.113.12.033.194-.053.36-.133.507-.067.02-.167.04-.167.04l.073-.147c.054-.106.1-.193.094-.313-.014-.033-.034-.033-.047-.033-.133.026-.293.186-.453.34l-.1.1c-.654.653-1.42 2.013-1.54 2.3.266-.133 1.146-1.007 1.58-1.607.086-.007.16-.02.16-.02-.067.133-.54.747-1.1 1.28-.26.247-.547.473-.794.647-.12.266-.24.56-.293.867-.007.04-.02.226.113.213.173-.033.487-.553.487-.553.293-.46.673-1.06 1.187-1.36.12-.067.286-.1.406-.027.027.02.094.1.114.14 0 0 .053-.087.073-.127h.48l-.7 1.24s-.253.387-.313.58c-.02.074.046.1.093.067Zm-3.527-.047c.213.24.707-.453.847-.773-.114-.053-.307-.173-.394-.36-.2.26-.493.746-.486 1.013 0 .04.006.08.033.12Zm.934-.92c.08-.133.14-.286.18-.446v-.007a.828.828 0 0 0 .013-.134c0-.073-.014-.14-.074-.18a.22.22 0 0 0-.2.04c-.133.08-.266.234-.226.427.046.227.293.307.306.3Zm1.96.834c.24-.3.426-.634.613-.954.093-.166.193-.34.293-.5a.094.094 0 0 0 .014-.04c0-.026-.02-.053-.034-.067-.073-.026-.14.007-.2.054-.36.287-.606.707-.82 1.06l-.02.04c-.073.153-.153.313-.146.48 0 .02.02.053.04.06.08.027.146-.033.213-.093l.047-.04Z" clip-rule="evenodd"/>  </g>  <defs>    <clipPath id="a">      <path fill="#fff" d="M0 0h18v18H0z"/>    </clipPath>  </defs></svg>