<svg xmlns="http://www.w3.org/2000/svg" viewBox="0 0 18 18">  <g clip-path="url(#a)">    <path d="M0 0h18v18H0V0Z"/>    <path fill="#fff" fill-rule="evenodd" d="M14.499 9c0 3.056-2.48 5.5-5.498 5.5A5.476 5.476 0 0 1 3.503 9a5.499 5.499 0 1 1 10.996 0ZM7.85 13.53l.754-4.207h-2.19l3.198-4.96c-.072-.037-.144-.037-.216-.037h-.431c-.18 0-.395 0-.575.037a3.617 3.617 0 0 0-.899.215A4.668 4.668 0 0 0 4.33 9a4.67 4.67 0 0 0 3.522 4.53Zm5.785-3.92c.036-.215.036-.394.036-.61v-.108c0-.108-.036-.251-.036-.36a2.12 2.12 0 0 0-.071-.467 4.697 4.697 0 0 0-3.306-3.559c-.036 0-.072-.036-.108-.036h-.036l-.79 4.206h2.191l-3.234 4.961c.216.036.467.036.683.036a4.648 4.648 0 0 0 4.168-2.552c.037-.072.072-.108.108-.18.18-.431.324-.899.395-1.33Z" clip-rule="evenodd"/>  </g>  <defs>    <clipPath id="a">      <path fill="#fff" d="M0 0h18v18H0z"/>    </clipPath>  </defs></svg>