<svg xmlns="http://www.w3.org/2000/svg" viewBox="0 0 18 18">  <path fill="#111124" d="M0 0h18v18H0z"/>  <path fill="#fff" d="M3.7 11.78 3 13.4c-.02.06.04.12.1.1 2.75-1.24 7.2-4.13 9.28-4.13 1.12 0 1.37.88 1.37 1.39 0 .04.03.08.08.08.03 0 .06-.01.07-.04.4-.77.52-2.09-1.64-2.09-1.75 0-6.4 2.02-8.52 3.04a.07.07 0 0 0-.04.03Z"/>  <path fill="#fff" d="m4.64 9.5-.4 1.04c-.03.06.03.12.09.1 1.93-.84 5.94-2.37 7.77-2.37 1.82 0 2.4.88 2.47 1.36 0 .02.02.04.04.04s.04-.01.05-.03c.3-.68-.11-2-2.67-2-2.07 0-5.71 1.21-7.3 1.83a.07.07 0 0 0-.05.04V9.5Z"/>  <path fill="#fff" d="m3.86 8.15-.41.98c-.03.05.03.1.09.09 2.15-.71 6.63-2 8.56-2 1.96 0 2.74.87 2.88 1.3.13-.73-.36-1.88-3.3-1.88-2.33 0-6.14.97-7.78 1.47a.07.07 0 0 0-.04.04Z"/>  <path fill="#fff" d="m5.7 6.84.36-.8a.1.1 0 0 1 .08-.06c.95-.16 3.31-.48 5.6-.48 2.28 0 3.07 1.18 3.2 1.8 0 .02-.01.04-.04.04 0 0-.02 0-.02-.02-.28-.4-1.22-1.13-3.25-1.13-1.56 0-4.4.5-5.81.8-.09.01-.16-.08-.12-.15Z"/>  <path fill="#F57C1F" d="M12.5 11.5a1 1 0 1 0 0-2 1 1 0 0 0 0 2Z"/></svg>