<svg xmlns="http://www.w3.org/2000/svg" viewBox="0 0 18 18">  <g clip-path="url(#a)">    <path fill="#003545" d="M0 0h18v18H0V0Z"/>    <path fill="#fff" d="M14.448 5.09a.165.165 0 0 0-.111-.037c-.11 0-.253.076-.33.114a1.038 1.038 0 0 1-.441.121 5.646 5.646 0 0 0-.437.03c-.976.102-1.409.847-1.827 1.569-.228.392-.463.798-.785 1.112a2.089 2.089 0 0 1-.213.18c-.333.249-.752.425-1.08.55-.314.12-.657.228-.988.332-.304.096-.59.186-.853.284-.119.044-.22.076-.309.107-.24.08-.413.138-.665.31-.098.068-.197.14-.266.196-.2.16-.377.347-.526.556a3.4 3.4 0 0 1-.44.532c-.054.052-.149.075-.29.075-.167 0-.368-.034-.581-.07a3.99 3.99 0 0 0-.641-.076.73.73 0 0 0-.37.079s-.152.088-.216.203l.063.029c.097.052.188.117.27.192.084.079.178.146.28.2a.251.251 0 0 1 .086.057c-.027.038-.066.09-.107.143-.225.294-.356.48-.28.581a.23.23 0 0 0 .114.027c.49 0 .753-.128 1.086-.289.096-.046.196-.095.31-.144a4.71 4.71 0 0 0 .626-.362c.294-.19.598-.384.893-.479.242-.074.495-.11.749-.105.312 0 .64.042.955.083.236.03.48.06.72.075a3.12 3.12 0 0 0 .598-.009l.027-.01c.168-.102.246-.324.323-.538.049-.138.09-.262.154-.342a.104.104 0 0 1 .013-.01.015.015 0 0 1 .01-.002c.003 0 .006.002.009.005v.006c-.04.838-.377 1.37-.718 1.842l-.228.244s.319 0 .5-.07c.662-.197 1.162-.634 1.526-1.33.09-.178.17-.361.24-.548.006-.016.064-.045.058.036 0 .024-.003.05-.005.076 0 .016-.003.033-.003.05-.01.114-.038.363-.038.363l.204-.109c.494-.312.874-.94 1.161-1.918.12-.407.208-.812.286-1.169.092-.426.173-.795.266-.937.143-.224.363-.375.575-.522l.086-.06c.266-.187.532-.404.59-.806v-.01c.046-.294.01-.37-.03-.406Z"/>  </g>  <defs>    <clipPath id="a">      <path fill="#fff" d="M0 0h18v18H0z"/>    </clipPath>  </defs></svg>