<svg xmlns="http://www.w3.org/2000/svg" viewBox="0 0 18 18">  <g clip-path="url(#a)">    <path d="M0 0h18v18H0V0Z"/>    <path fill="#72CDF4" fill-rule="evenodd" d="M4.91 7.139a1.587 1.587 0 0 0-.296-.029C2.587 7.11 2.05 10.69 2 11.066h1.078c.024-.196.363-2.962 1.828-3.927" clip-rule="evenodd"/>    <path fill="#00A4E4" fill-rule="evenodd" d="M5.512 7.06c.307-.076.628-.08.937-.01a3.04 3.04 0 0 0-.496.39 2.832 2.832 0 0 0-.441-.38Zm.241.56a1.797 1.797 0 0 0-.456-.349c-1.456.695-1.865 3.468-1.908 3.795h1.075c.022-.164.28-2.26 1.29-3.445Z" clip-rule="evenodd"/>    <path fill="#0081C5" fill-rule="evenodd" d="M6.131 7.634c.16-.16.346-.293.55-.391.17.087.33.213.49.378-.205.243-.38.51-.522.795a5.317 5.317 0 0 0-.518-.782Zm.765-.574c.307-.076.628-.08.937-.01a3.04 3.04 0 0 0-.495.39 2.869 2.869 0 0 0-.442-.38ZM6.483 8.7a5.62 5.62 0 0 0-.521-.84c-.874 1.06-1.148 2.89-1.191 3.205h1.08c.013-.11.154-1.282.632-2.364Z" clip-rule="evenodd"/>    <path fill="#72CDF4" fill-rule="evenodd" d="M12.151 7.443c-.017.159-.16 1.3-.634 2.365.15.295.326.576.526.84.873-1.062 1.145-2.89 1.186-3.205h-1.078ZM8.17 9.316a7.31 7.31 0 0 0-.826-1.456c-.206.259-.38.541-.517.841.08.16.158.324.234.492.735 1.608 1.322 2.205 2.172 2.205.115 0 .228-.013.336-.034-.482-.35-.915-.985-1.4-2.048Z" clip-rule="evenodd"/>    <path fill="#00A4E4" fill-rule="evenodd" d="M9.554 9.316c-.532-1.167-.978-1.782-1.488-2.045-.183.087-.357.21-.518.365.362.48.664 1.003.9 1.556.532 1.167.978 1.782 1.489 2.045a1.94 1.94 0 0 0 .517-.365 7.427 7.427 0 0 1-.9-1.556Zm.615 2.14a2.88 2.88 0 0 0 .496-.388c.133.141.281.269.44.38a2.05 2.05 0 0 1-.936.01m3.369-4.015c-.022.163-.278 2.258-1.289 3.444.132.141.286.26.456.35 1.446-.689 1.854-3.373 1.91-3.794h-1.077Z" clip-rule="evenodd"/>    <path fill="#0081C5" fill-rule="evenodd" d="M10.832 10.887c.205-.242.38-.509.522-.793.174.309.343.567.517.78-.16.161-.346.294-.55.392a1.825 1.825 0 0 1-.489-.379Zm1.658.561c-.307.076-.627.08-.936.011.178-.109.343-.243.495-.391.144.152.291.278.441.38Zm-1.55-2.132C10.207 7.708 9.618 7.11 8.77 7.11a1.72 1.72 0 0 0-.337.035c.482.35.915.985 1.4 2.047.218.516.495 1.004.825 1.456.207-.258.38-.54.517-.84-.08-.157-.158-.322-.234-.492Zm3.982-1.873c-.022.198-.37 2.966-1.828 3.93.094.017.19.025.292.025 2.034 0 2.564-3.58 2.614-3.955h-1.078Z" clip-rule="evenodd"/>  </g>  <defs>    <clipPath id="a">      <path fill="#fff" d="M0 0h18v18H0z"/>    </clipPath>  </defs></svg>