<svg xmlns="http://www.w3.org/2000/svg" viewBox="0 0 18 18">  <g clip-path="url(#a)">    <path fill="#081F2C" d="M0 0h18v18H0V0Z"/>    <path fill="#E40946" d="M13.658 10.26h.12c.667.02 1.204.556 1.222 1.222v.066c-.008.483-.29.92-.728 1.125a1.29 1.29 0 0 1-1.153-.047 1.267 1.267 0 0 1 .54-2.366Z"/>    <path fill="#fff" d="M8.231 5.836c.405-.2.847-.314 1.298-.334.294-.01.59.02.877.09.44.101.827.353 1.099.713.294.4.4.911.4 1.4v4.902H9.698c-.01-1.353 0-2.705-.006-4.057-.004-.31-.08-.65-.326-.859-.267-.227-.644-.26-.982-.233-.469.04-.887.307-1.175.67v4.479H5V5.67h2.205v.49a.301.301 0 0 1-.026.164c-.078.149-.159.296-.237.444a4.322 4.322 0 0 1 1.29-.933Z"/>  </g>  <defs>    <clipPath id="a">      <path fill="#fff" d="M0 0h18v18H0z"/>    </clipPath>  </defs></svg>