<svg xmlns="http://www.w3.org/2000/svg" viewBox="0 0 18 18">  <g clip-path="url(#a)">    <path d="M0 0h18v18H0V0Z"/>    <path stroke="#EBC34B" stroke-width=".353" d="M4.765 3h8.47v12h-8.47V3Z"/>    <path fill="#EBC34B" d="M12.168 12.368c.104.07.19.16.258.272a.767.767 0 0 1 .103.408c0 .163-.022.358-.083.444a.999.999 0 0 1-.278.27c-.093.055-.161.113-.41.113H9.32V13.7c.04-.004.1-.01.176-.02.077-.011.078-.013.111-.028a.136.136 0 0 0 .05-.038.148.148 0 0 0 .029-.058c.007-.026.017-.158.017-.158l.01-2.392a.346.346 0 0 0-.03-.148c-.02-.043-.039-.089-.095-.115-.05-.025-.055-.033-.118-.046-.061-.013-.08-.021-.123-.024v-.176h1.858c.122 0 .244.012.364.037.118.025.32.066.426.128a.654.654 0 0 1 .339.596.778.778 0 0 1-.068.331.729.729 0 0 1-.19.248c-.078.066-.258.124-.359.17a1.61 1.61 0 0 1-.32.104v.023c.101.01.215.036.34.076.127.038.332.089.431.158Zm-.777-.527a.592.592 0 0 0 .128-.232 1.04 1.04 0 0 0 .038-.299c0-.193-.054-.343-.16-.452-.108-.11-.191-.142-.428-.166-.053 0-.138-.003-.22 0l-.335.01v1.347h.467c.14-.016.175-.017.272-.051a.553.553 0 0 0 .238-.156Zm.326 1.12a.67.67 0 0 0-.213-.512c-.14-.134-.242-.2-.505-.2a6.64 6.64 0 0 0-.27.005l-.315.005-.01 1.107a.26.26 0 0 0 .131.235c.085.052.397.04.499.04.375 0 .45-.064.549-.149.109-.094.134-.253.134-.532Z"/>    <path fill="#EBC34B" d="M7.938 11.999c-.213 0-.536-.054-.732-.136a1.573 1.573 0 0 1-.517-.356 1.73 1.73 0 0 1-.357-.566 1.89 1.89 0 0 1-.15-.728c0-.28.055-.65.142-.877a1.78 1.78 0 0 1 .361-.591c.154-.164.338-.293.54-.378.208-.09.667-.123.903-.123a1.655 1.655 0 0 1 .884.245l.103-.238h.232v1.134h-.215c-.026-.122-.085-.23-.139-.372a.856.856 0 0 0-.158-.254c-.08-.112-.187-.145-.298-.208a.74.74 0 0 0-.379-.096.995.995 0 0 0-.454.106c-.14.071-.31.177-.412.315a1.542 1.542 0 0 0-.228.51c-.056.205-.077.523-.077.776 0 .224.028.43.085.618.059.187.142.35.249.492.107.14.233.25.38.329.146.079.31.118.491.118a1.03 1.03 0 0 0 .67-.23c.084-.072.158-.154.221-.246a1.97 1.97 0 0 0 .187-.366l.17.081c-.136.445-.347.668-.585.819-.238.148-.59.222-.917.222Zm4.58-5.443a.625.625 0 0 0-.144.035.484.484 0 0 0-.133.059.923.923 0 0 0-.133.091 1.507 1.507 0 0 0-.136.168 7.36 7.36 0 0 0-.361.552c-.11.186-.25.422-.415.71-.062.104-.055.082-.075.145-.02.065-.012.26-.012.382l.002.902c0 .059.012.111.035.155a.288.288 0 0 0 .126.119c.035.013.039.02.13.041.09.018.163.028.218.03v.18H9.819v-.18c.047-.004.15-.01.243-.018a.833.833 0 0 0 .196-.037.226.226 0 0 0 .123-.101c.023-.043.023-.096.023-.159V8.545a.39.39 0 0 0-.048-.143 3.798 3.798 0 0 0-.115-.234 40.178 40.178 0 0 0-.653-1.192 1.318 1.318 0 0 0-.148-.213.71.71 0 0 0-.146-.125.485.485 0 0 0-.145-.058.954.954 0 0 0-.15-.024v-.18h1.62v.18c-.17.003-.292.015-.362.034-.07.02-.105.048-.105.085 0 .01.005.027.015.051.01.025.024.057.043.094a7.39 7.39 0 0 0 .163.307c.078.147.159.293.24.44l.322.568c.204-.321.404-.646.6-.974.14-.234.208-.373.208-.42a.116.116 0 0 0-.01-.05.108.108 0 0 0-.032-.041.313.313 0 0 0-.113-.054.775.775 0 0 0-.158-.025l-.159-.015v-.18h1.248v.18ZM9.187 4.3A1.582 1.582 0 0 0 9 4.335a.709.709 0 0 0-.203.08c-.06.042-.1.12-.123.238a2.707 2.707 0 0 0-.03.445v2.404h-.218L6.358 4.797l-.005 1.68v.463c0 .196.067.225.105.261.038.036.072.045.193.077.12.031.2.048.238.05v.175H5.471v-.176c.095-.008.19-.024.284-.047a.638.638 0 0 0 .2-.079.359.359 0 0 0 .121-.21 2.49 2.49 0 0 0 .033-.487l.006-1.598a.677.677 0 0 0-.04-.227.423.423 0 0 0-.109-.176.745.745 0 0 0-.246-.138.862.862 0 0 0-.248-.064v-.176h1.283L8.4 6.376V5.131c0-.204-.014-.361-.04-.47-.027-.11-.066-.183-.116-.22a.841.841 0 0 0-.231-.091 1.344 1.344 0 0 0-.254-.05v-.175h1.427v.176Z"/>  </g>  <defs>    <clipPath id="a">      <path fill="#fff" d="M0 0h18v18H0z"/>    </clipPath>  </defs></svg>