<svg xmlns="http://www.w3.org/2000/svg" viewBox="0 0 18 18">  <g clip-path="url(#a)">    <path d="M0 0h18v18H0V0Z"/>    <path fill="#fff" d="M9 9.443c1.693 0 3.36.105 5 .317V8.282c-1.64.211-3.307.317-5 .317s-3.373-.106-5-.317v1.464a41.555 41.555 0 0 1 5-.303ZM14 6a10.015 10.015 0 0 1-5 1.346A10.01 10.01 0 0 1 4 6v1.556c1.634.42 3.313.632 5 .634a20.213 20.213 0 0 0 5-.633V6Zm0 6.041v-1.556a20.211 20.211 0 0 0-5-.633c-1.72 0-3.399.224-5 .633v1.556a9.883 9.883 0 0 1 5-1.345c1.824 0 3.53.488 5 1.345Z"/>  </g>  <defs>    <clipPath id="a">      <path fill="#fff" d="M0 0h18v18H0z"/>    </clipPath>  </defs></svg>