<svg xmlns="http://www.w3.org/2000/svg" viewBox="0 0 18 18">  <g clip-path="url(#a)">    <path fill="#fff" d="M0 0h18v18H0V0Z"/>    <path fill="#0041C0" d="M9.866 10.742H8.408v-1.86h.945c.181 0 .331-.004.513-.013a.777.777 0 0 0 .603-.326.727.727 0 0 0 .141-.344 1.19 1.19 0 0 0 .006-.316.801.801 0 0 0-.797-.725h-1.41v6.03H6V5.25h3.938a6.6 6.6 0 0 1 .444.013 2.695 2.695 0 0 1 2.349 1.582c.231.494.31.967.25 1.508a2.579 2.579 0 0 1-2.042 2.273 4.758 4.758 0 0 1-1.073.116Z"/>  </g>  <defs>    <clipPath id="a">      <path fill="#fff" d="M0 0h18v18H0z"/>    </clipPath>  </defs></svg>