<svg xmlns="http://www.w3.org/2000/svg" viewBox="0 0 18 18">  <g clip-path="url(#a)">    <path fill="#241F21" d="M0 0h18v18H0V0Z"/>    <path fill="#fff" d="M8.07 12.272c0 .881.154 1.238.707 1.582h-2.67c.5-.267.6-.574.6-1.723V6.708c0-1.149-.102-1.455-.6-1.723h1.296c.41 0 .41 0 1.515-.013h.423a3.97 3.97 0 0 1 1.356.173c.146.045.29.098.43.159a2.307 2.307 0 0 1 1.26 1.396c.067.205.105.418.113.633 0 1.39-1.348 2.527-2.992 2.527a2.212 2.212 0 0 1-.975-.18 3.003 3.003 0 0 0 1.354-.383c.137-.079.268-.167.391-.266a1.846 1.846 0 0 0 .707-1.455c0-1.034-.745-1.672-1.964-1.672a3.269 3.269 0 0 0-.48.025 3.266 3.266 0 0 0-.47.09v6.253Z"/>  </g>  <defs>    <clipPath id="a">      <path fill="#fff" d="M0 0h18v18H0z"/>    </clipPath>  </defs></svg>