<svg xmlns="http://www.w3.org/2000/svg" viewBox="0 0 18 18">  <g clip-path="url(#a)">    <path fill="#25303C" d="M0 0h18v18H0V0Z"/>    <path fill="#fff" d="m13.025 5.981-2.013-1.006a4.5 4.5 0 0 0-4.024 0l6.037 3.019V5.98Z"/>    <path fill="#E76240" d="m6.988 6.988 1.248-.624-2.013-1.007-1.248.624v2.013l8.05 4.025v-2.013L6.988 6.988Z"/>    <path fill="#fff" d="m10.249 11.395-.09.044a2.594 2.594 0 0 1-2.319 0l-2.865-1.433v2.013l2.013 1.006a4.5 4.5 0 0 0 4.024 0l1.249-.624-2.012-1.006Z"/>  </g>  <defs>    <clipPath id="a">      <path fill="#fff" d="M0 0h18v18H0z"/>    </clipPath>  </defs></svg>