<svg xmlns="http://www.w3.org/2000/svg" viewBox="0 0 18 18">  <g clip-path="url(#a)">    <path fill="url(#b)" d="M0 0h18v18H0V0Z"/>    <path fill="url(#c)" d="M18 6.784 0-1v20l18-7.784V6.784Z"/>    <g clip-path="url(#d)">      <path fill="#fff" d="M3.484 9.436a.573.573 0 0 1-.222.456.777.777 0 0 1-.25.128 1.06 1.06 0 0 1-.317.045c-.137 0-.26-.018-.368-.056A1.107 1.107 0 0 1 2 9.823l.18-.293c.087.072.165.125.235.159.07.033.14.05.214.05.09 0 .161-.023.217-.07a.23.23 0 0 0 .08-.187.296.296 0 0 0-.014-.094.292.292 0 0 0-.055-.091.735.735 0 0 0-.109-.1 5.337 5.337 0 0 0-.178-.135 4.542 4.542 0 0 1-.163-.121 1.322 1.322 0 0 1-.145-.135.612.612 0 0 1-.105-.16.528.528 0 0 1 .162-.622.679.679 0 0 1 .226-.118.93.93 0 0 1 .287-.043 1.1 1.1 0 0 1 .599.171l-.164.265a.607.607 0 0 0-.352-.118.29.29 0 0 0-.186.058.181.181 0 0 0-.074.147c0 .057.022.107.065.152.043.045.118.107.224.19.107.077.196.147.265.205.07.058.125.115.166.167a.47.47 0 0 1 .085.158.626.626 0 0 1 .024.178Zm1.854-.494c0 .08-.009.169-.026.263a.904.904 0 0 1-.086.26.576.576 0 0 1-.16.198.394.394 0 0 1-.251.078.465.465 0 0 1-.4-.203c-.097-.134-.145-.32-.145-.554 0-.242.048-.432.148-.574a.464.464 0 0 1 .401-.212.44.44 0 0 1 .38.2c.093.132.139.314.139.544Zm.586-.02a1.3 1.3 0 0 0-.067-.429.977.977 0 0 0-.191-.332.88.88 0 0 0-.67-.294.895.895 0 0 0-.4.085.957.957 0 0 0-.319.27l-.003-.306h-.54v3.15h.539v-1.33c.053.06.104.113.153.155a.752.752 0 0 0 .15.103c.05.026.103.045.16.056a.954.954 0 0 0 .58-.07.945.945 0 0 0 .32-.24c.09-.104.16-.226.211-.363.052-.139.077-.291.077-.456Zm.24 1.094h.554V6.935h-.554v3.08Zm2.915 0V7.915h-.553v1.132c0 .1-.005.178-.013.233a.617.617 0 0 1-.042.15c-.078.173-.222.26-.43.26-.164 0-.278-.058-.343-.176a.45.45 0 0 1-.053-.151 1.524 1.524 0 0 1-.015-.245V7.914h-.553v1.194c0 .082 0 .15.002.206a1.443 1.443 0 0 0 .03.265.419.419 0 0 0 .032.097c.05.129.131.226.245.292a.819.819 0 0 0 .417.098.925.925 0 0 0 .392-.077c.112-.052.221-.137.327-.255l.002.282h.555Zm2.386 0V8.824l-.002-.208a1.15 1.15 0 0 0-.061-.354.586.586 0 0 0-.245-.291.8.8 0 0 0-.419-.103.925.925 0 0 0-.391.078 1.042 1.042 0 0 0-.328.254l-.001-.281H9.46v2.098h.558V8.884c0-.097.003-.174.01-.228a.606.606 0 0 1 .04-.154.39.39 0 0 1 .167-.19.522.522 0 0 1 .267-.065c.164 0 .277.058.342.176a.475.475 0 0 1 .052.15c.01.056.015.138.015.244v1.197l.553.002Zm2.29-.139-.844-1.049.713-.764-.42-.181-.741.86h-.059V6.936h-.558v3.08h.558V8.9l.835 1.159.516-.181Zm2.156-.753V8.78l-1.677-.842v.378l1.3.633-1.3.642v.37l1.677-.837Z"/>    </g>  </g>  <defs>    <linearGradient id="b" x1="0" x2="19.161" y1=".462" y2=".462" gradientUnits="userSpaceOnUse">      <stop stop-color="#DC4552"/>      <stop offset="1" stop-color="#E06438"/>    </linearGradient>    <linearGradient id="c" x1="0" x2="19.161" y1="-.486" y2="-.486" gradientUnits="userSpaceOnUse">      <stop stop-color="#DA4080"/>      <stop offset="1" stop-color="#E37539"/>    </linearGradient>    <clipPath id="a">      <path fill="#fff" d="M0 0h18v18H0z"/>    </clipPath>    <clipPath id="d">      <path fill="#fff" d="M2 6.935h14v4.131H2z"/>    </clipPath>  </defs></svg>