<svg xmlns="http://www.w3.org/2000/svg" viewBox="0 0 18 18">  <g clip-path="url(#a)">    <path fill="#306FB4" d="M0 0h18v18H0V0Z"/>    <path fill="#F79320" d="M14.588 9c0 3.126-2.477 5.5-5.622 5.5-3.077 0-5.554-2.487-5.554-5.476A5.527 5.527 0 0 1 8.966 3.5c3.145 0 5.622 2.374 5.622 5.5Zm-9.919.024c0 2.28 1.827 4.298 4.226 4.298 2.487 0 4.424-1.866 4.424-4.298 0-2.475-1.916-4.342-4.424-4.342-2.42 0-4.226 2.02-4.226 4.341Z"/>  </g>  <defs>    <clipPath id="a">      <path fill="#fff" d="M0 0h18v18H0z"/>    </clipPath>  </defs></svg>