<svg xmlns="http://www.w3.org/2000/svg" viewBox="0 0 18 18">  <g clip-path="url(#a)">    <path d="M0 0h18v18H0V0Z"/>    <path fill="#fff" d="m5.509 9.439 3.796-3.792a1.368 1.368 0 0 1 1.93 0l.295.295.591-.591-.295-.297a2.206 2.206 0 0 0-3.117 0L4.916 8.847l.593.592Z"/>    <path fill="#fff" d="m10.576 6.896-.591-.592-3.797 3.797a1.367 1.367 0 0 1-1.933-1.934l3.276-3.276-.592-.591-3.275 3.276a2.204 2.204 0 1 0 3.115 3.116l3.797-3.796Zm3.78.68a2.208 2.208 0 0 0-3.117 0l-3.797 3.797.591.59 3.797-3.796a1.368 1.368 0 0 1 2.229 1.492c-.07.166-.172.316-.3.442l-3.272 3.276.593.591 3.275-3.276a2.206 2.206 0 0 0 0-3.116Z"/>    <path fill="#fff" d="m12.51 8.83-3.797 3.795a1.37 1.37 0 0 1-1.934 0l-.295-.296-.591.591.295.297a2.208 2.208 0 0 0 3.117 0L13.1 9.418l-.59-.588Z"/>  </g>  <defs>    <clipPath id="a">      <path fill="#fff" d="M0 0h18v18H0z"/>    </clipPath>  </defs></svg>