<svg xmlns="http://www.w3.org/2000/svg" viewBox="0 0 18 18">  <g clip-path="url(#a)">    <path fill="#fff" d="M0 0h18v18H0V0Z"/>    <path fill="url(#b)" d="M4.5 6.477c0 1.43.81 2.168 1.926 2.609 1.422.63 2.932.763 4.389 1.274.871.351 1.44.887.766 1.907-.653.78-1.48.897-2.336.897-1.463 0-3.058.022-3.058-1.914H4.5c0 2.592 2.41 3.375 4.5 3.375 1.774 0 4.495-.672 4.495-3.068.086-1.429-1.015-2.227-2.097-2.674-1.03-.393-2.098-.55-3.13-.826-.713-.21-2.094-.103-2.08-1.494.013-1.39 1.543-1.67 2.591-1.732 1.627 0 3.033.648 3.033 1.92h1.683c0-.903-.517-1.68-1.12-2.348-.641-.708-2.357-1.028-3.596-1.028-1.237 0-4.279.575-4.279 3.102Z"/>  </g>  <defs>    <linearGradient id="b" x1="4.5" x2="16.312" y1="9.001" y2="9.001" gradientUnits="userSpaceOnUse">      <stop stop-color="#0B355F"/>      <stop offset="1" stop-color="#00A4E3"/>    </linearGradient>    <clipPath id="a">      <path fill="#fff" d="M0 0h18v18H0z"/>    </clipPath>  </defs></svg>