<svg xmlns="http://www.w3.org/2000/svg" viewBox="0 0 18 18">  <g clip-path="url(#a)">    <path fill="#7C172B" d="M0 0h18v18H0V0Z"/>    <path fill="#fff" fill-rule="evenodd" d="M4.886 5.5h.16c-.004.539 0 1.078-.002 1.616H6.09c.007.154 0 .31.003.464l-1.05.001v2.493c.002.214-.005.428.02.64a.39.39 0 0 0 .254.32c.116.03.237-.023.33-.091.135-.091.217-.236.309-.366a.685.685 0 0 0 .137.1c-.112.25-.255.496-.48.662-.267.216-.63.276-.964.231a1.104 1.104 0 0 1-.882-.757c-.043-.228-.034-.463-.044-.694V7.581h-.572l-.001-.16c.145-.12.304-.22.444-.348a5.19 5.19 0 0 0 1.292-1.572Zm2.538 1.885c.38-.309.887-.455 1.372-.38.335.052.64.234.87.479.28.287.436.671.51 1.06.042.204.058.411.07.619h-2.42c.023.462.129.937.41 1.313.148.205.358.378.608.437a.93.93 0 0 0 .76-.143c.2-.147.344-.352.48-.555l.16.103c-.207.415-.466.832-.867 1.085-.383.244-.86.298-1.303.222a1.606 1.606 0 0 1-1.03-.612c-.31-.395-.451-.898-.48-1.393-.024-.459.02-.93.197-1.359.14-.343.374-.645.663-.876Zm.652.155c-.25.386-.28.861-.274 1.307h1.283a6.528 6.528 0 0 0-.046-.868 1.022 1.022 0 0 0-.244-.554.393.393 0 0 0-.34-.13c-.161.004-.297.113-.379.245Zm2.621-.424 2.443.001v.173c-.132-.012-.25.054-.373.089-.061.09-.036.212.01.304.148.284.302.565.453.848.15-.217.313-.425.44-.656.061-.12.143-.255.105-.395-.056-.145-.23-.171-.365-.19v-.174h1.56v.175a1.05 1.05 0 0 0-.582.21c-.205.161-.356.377-.5.59l-.479.732.766 1.454c.169.313.333.635.57.905.098.119.254.167.405.175v.169h-2.457v-.17c.118-.015.244-.015.35-.074.125-.094.057-.266.008-.383-.143-.304-.313-.594-.467-.892-.183.271-.373.537-.548.814-.086.134-.093.337.032.451.096.09.235.079.355.085v.169h-1.726v-.17a1.05 1.05 0 0 0 .77-.336c.37-.396.65-.862.957-1.305l-.733-1.356a7.661 7.661 0 0 0-.387-.656 1.01 1.01 0 0 0-.26-.285.741.741 0 0 0-.347-.128v-.174Z" clip-rule="evenodd"/>  </g>  <defs>    <clipPath id="a">      <path fill="#fff" d="M0 0h18v18H0z"/>    </clipPath>  </defs></svg>