<svg xmlns="http://www.w3.org/2000/svg" viewBox="0 0 18 18">  <g clip-path="url(#a)">    <path d="M0 0h18v18H0V0Z"/>    <g clip-path="url(#b)">      <path fill="#AB111A" d="m9.708 7.84 1.318-.87v2.19l.49.5-2.117 2.06h-.42V7.84h.729Z"/>      <path fill="#E2131B" d="M8.98 7.84v3.88h-.41L6.452 9.66l.49-.5V6.97l1.308.87h.73Z"/>      <path fill="#AB111A" d="M3.506 9a5.493 5.493 0 0 1 5.493-5.499c.978 0 1.907.26 2.706.72l-.709.98a4.239 4.239 0 0 0-2.007-.5 4.297 4.297 0 0 0-4.295 4.3 4.3 4.3 0 0 0 1.339 3.119l-.71.98A5.379 5.379 0 0 1 3.507 9Z"/>      <path fill="#E2131B" d="M14.462 9a5.493 5.493 0 0 1-5.493 5.5 5.42 5.42 0 0 1-2.706-.72l.709-.98c.599.32 1.278.5 2.007.5A4.296 4.296 0 0 0 13.273 9a4.3 4.3 0 0 0-1.338-3.119l.71-.98A5.394 5.394 0 0 1 14.462 9Z"/>    </g>  </g>  <defs>    <clipPath id="a">      <path fill="#fff" d="M0 0h18v18H0z"/>    </clipPath>    <clipPath id="b">      <path fill="#fff" d="M3.5 3.5h10.965v11H3.5z"/>    </clipPath>  </defs></svg>